<?xml version="1.0" encoding="UTF-8" standalone="no"?>
<!DOCTYPE svg PUBLIC "-//W3C//DTD SVG 1.1//EN"
 "http://www.w3.org/Graphics/SVG/1.1/DTD/svg11.dtd">
<!-- Generated by graphviz version 7.1.0 (0)
 -->
<!-- Title: snakemake_dag Pages: 1 -->
<svg width="267pt" height="692pt"
 viewBox="0.00 0.00 267.00 692.00" xmlns="http://www.w3.org/2000/svg" xmlns:xlink="http://www.w3.org/1999/xlink">
<g id="graph0" class="graph" transform="scale(1 1) rotate(0) translate(4 688)">
<title>snakemake_dag</title>
<polygon fill="white" stroke="none" points="-4,4 -4,-688 263,-688 263,4 -4,4"/>
<!-- 0 -->
<g id="node1" class="node">
<title>0</title>
<path fill="none" stroke="#d85656" stroke-width="2" d="M185.5,-36C185.5,-36 155.5,-36 155.5,-36 149.5,-36 143.5,-30 143.5,-24 143.5,-24 143.5,-12 143.5,-12 143.5,-6 149.5,0 155.5,0 155.5,0 185.5,0 185.5,0 191.5,0 197.5,-6 197.5,-12 197.5,-12 197.5,-24 197.5,-24 197.5,-30 191.5,-36 185.5,-36"/>
<text text-anchor="middle" x="170.5" y="-15.5" font-family="sans" font-size="10.00">all</text>
</g>
<!-- 1 -->
<g id="node2" class="node">
<title>1</title>
<path fill="none" stroke="#56d8a2" stroke-width="2" d="M164,-108C164,-108 111,-108 111,-108 105,-108 99,-102 99,-96 99,-96 99,-84 99,-84 99,-78 105,-72 111,-72 111,-72 164,-72 164,-72 170,-72 176,-78 176,-84 176,-84 176,-96 176,-96 176,-102 170,-108 164,-108"/>
<text text-anchor="middle" x="137.5" y="-87.5" font-family="sans" font-size="10.00">visualise_tree</text>
</g>
<!-- 1&#45;&gt;0 -->
<g id="edge2" class="edge">
<title>1&#45;&gt;0</title>
<path fill="none" stroke="grey" stroke-width="2" d="M145.83,-71.34C149.09,-64.43 152.91,-56.31 156.57,-48.56"/>
<polygon fill="grey" stroke="grey" stroke-width="2" points="159.67,-50.18 160.77,-39.64 153.34,-47.19 159.67,-50.18"/>
</g>
<!-- 2 -->
<g id="node3" class="node">
<title>2</title>
<path fill="none" stroke="#9fd856" stroke-width="2" d="M136.5,-180C136.5,-180 106.5,-180 106.5,-180 100.5,-180 94.5,-174 94.5,-168 94.5,-168 94.5,-156 94.5,-156 94.5,-150 100.5,-144 106.5,-144 106.5,-144 136.5,-144 136.5,-144 142.5,-144 148.5,-150 148.5,-156 148.5,-156 148.5,-168 148.5,-168 148.5,-174 142.5,-180 136.5,-180"/>
<text text-anchor="middle" x="121.5" y="-159.5" font-family="sans" font-size="10.00">tree</text>
</g>
<!-- 2&#45;&gt;1 -->
<g id="edge3" class="edge">
<title>2&#45;&gt;1</title>
<path fill="none" stroke="grey" stroke-width="2" d="M125.54,-143.34C127.06,-136.67 128.84,-128.89 130.55,-121.39"/>
<polygon fill="grey" stroke="grey" stroke-width="2" points="133.92,-122.38 132.73,-111.85 127.09,-120.82 133.92,-122.38"/>
</g>
<!-- 3 -->
<g id="node4" class="node">
<title>3</title>
<path fill="none" stroke="#d8c356" stroke-width="2" d="M128.5,-252C128.5,-252 98.5,-252 98.5,-252 92.5,-252 86.5,-246 86.5,-240 86.5,-240 86.5,-228 86.5,-228 86.5,-222 92.5,-216 98.5,-216 98.5,-216 128.5,-216 128.5,-216 134.5,-216 140.5,-222 140.5,-228 140.5,-228 140.5,-240 140.5,-240 140.5,-246 134.5,-252 128.5,-252"/>
<text text-anchor="middle" x="113.5" y="-231.5" font-family="sans" font-size="10.00">merge</text>
</g>
<!-- 3&#45;&gt;2 -->
<g id="edge4" class="edge">
<title>3&#45;&gt;2</title>
<path fill="none" stroke="grey" stroke-width="2" d="M115.52,-215.34C116.27,-208.75 117.15,-201.08 118,-193.67"/>
<polygon fill="grey" stroke="grey" stroke-width="2" points="121.45,-194.24 119.11,-183.91 114.5,-193.45 121.45,-194.24"/>
</g>
<!-- 4 -->
<g id="node5" class="node">
<title>4</title>
<path fill="none" stroke="#567bd8" stroke-width="2" d="M124.5,-324C124.5,-324 94.5,-324 94.5,-324 88.5,-324 82.5,-318 82.5,-312 82.5,-312 82.5,-300 82.5,-300 82.5,-294 88.5,-288 94.5,-288 94.5,-288 124.5,-288 124.5,-288 130.5,-288 136.5,-294 136.5,-300 136.5,-300 136.5,-312 136.5,-312 136.5,-318 130.5,-324 124.5,-324"/>
<text text-anchor="middle" x="109.5" y="-303.5" font-family="sans" font-size="10.00">flatten</text>
</g>
<!-- 4&#45;&gt;3 -->
<g id="edge5" class="edge">
<title>4&#45;&gt;3</title>
<path fill="none" stroke="grey" stroke-width="2" d="M110.51,-287.34C110.89,-280.75 111.32,-273.08 111.75,-265.67"/>
<polygon fill="grey" stroke="grey" stroke-width="2" points="115.23,-266.11 112.3,-255.92 108.24,-265.71 115.23,-266.11"/>
</g>
<!-- 5 -->
<g id="node6" class="node">
<title>5</title>
<path fill="none" stroke="#56d87b" stroke-width="2" d="M129.5,-396C129.5,-396 85.5,-396 85.5,-396 79.5,-396 73.5,-390 73.5,-384 73.5,-384 73.5,-372 73.5,-372 73.5,-366 79.5,-360 85.5,-360 85.5,-360 129.5,-360 129.5,-360 135.5,-360 141.5,-366 141.5,-372 141.5,-372 141.5,-384 141.5,-384 141.5,-390 135.5,-396 129.5,-396"/>
<text text-anchor="middle" x="107.5" y="-375.5" font-family="sans" font-size="10.00">extract_cds</text>
</g>
<!-- 5&#45;&gt;4 -->
<g id="edge6" class="edge">
<title>5&#45;&gt;4</title>
<path fill="none" stroke="grey" stroke-width="2" d="M108,-359.34C108.19,-352.75 108.41,-345.08 108.62,-337.67"/>
<polygon fill="grey" stroke="grey" stroke-width="2" points="112.11,-338.02 108.9,-327.93 105.12,-337.82 112.11,-338.02"/>
</g>
<!-- 6 -->
<g id="node7" class="node">
<title>6</title>
<path fill="none" stroke="#56c9d8" stroke-width="2" d="M126.5,-468C126.5,-468 86.5,-468 86.5,-468 80.5,-468 74.5,-462 74.5,-456 74.5,-456 74.5,-444 74.5,-444 74.5,-438 80.5,-432 86.5,-432 86.5,-432 126.5,-432 126.5,-432 132.5,-432 138.5,-438 138.5,-444 138.5,-444 138.5,-456 138.5,-456 138.5,-462 132.5,-468 126.5,-468"/>
<text text-anchor="middle" x="106.5" y="-447.5" font-family="sans" font-size="10.00">consensus</text>
</g>
<!-- 6&#45;&gt;5 -->
<g id="edge7" class="edge">
<title>6&#45;&gt;5</title>
<path fill="none" stroke="grey" stroke-width="2" d="M106.75,-431.34C106.85,-424.75 106.96,-417.08 107.06,-409.67"/>
<polygon fill="grey" stroke="grey" stroke-width="2" points="110.56,-409.98 107.2,-399.93 103.56,-409.88 110.56,-409.98"/>
</g>
<!-- 7 -->
<g id="node8" class="node">
<title>7</title>
<path fill="none" stroke="#56d8c9" stroke-width="2" d="M121.5,-540C121.5,-540 91.5,-540 91.5,-540 85.5,-540 79.5,-534 79.5,-528 79.5,-528 79.5,-516 79.5,-516 79.5,-510 85.5,-504 91.5,-504 91.5,-504 121.5,-504 121.5,-504 127.5,-504 133.5,-510 133.5,-516 133.5,-516 133.5,-528 133.5,-528 133.5,-534 127.5,-540 121.5,-540"/>
<text text-anchor="middle" x="106.5" y="-519.5" font-family="sans" font-size="10.00">pileup</text>
</g>
<!-- 7&#45;&gt;6 -->
<g id="edge8" class="edge">
<title>7&#45;&gt;6</title>
<path fill="none" stroke="grey" stroke-width="2" d="M106.5,-503.34C106.5,-496.75 106.5,-489.08 106.5,-481.67"/>
<polygon fill="grey" stroke="grey" stroke-width="2" points="110,-481.93 106.5,-471.93 103,-481.93 110,-481.93"/>
</g>
<!-- 8 -->
<g id="node9" class="node">
<title>8</title>
<path fill="none" stroke="#c6d856" stroke-width="2" d="M73,-612C73,-612 12,-612 12,-612 6,-612 0,-606 0,-600 0,-600 0,-588 0,-588 0,-582 6,-576 12,-576 12,-576 73,-576 73,-576 79,-576 85,-582 85,-588 85,-588 85,-600 85,-600 85,-606 79,-612 73,-612"/>
<text text-anchor="middle" x="42.5" y="-591.5" font-family="sans" font-size="10.00">samtools_index</text>
</g>
<!-- 8&#45;&gt;7 -->
<g id="edge10" class="edge">
<title>8&#45;&gt;7</title>
<path fill="none" stroke="grey" stroke-width="2" d="M58.65,-575.34C65.57,-567.77 73.81,-558.75 81.49,-550.35"/>
<polygon fill="grey" stroke="grey" stroke-width="2" points="83.93,-552.88 88.09,-543.14 78.76,-548.15 83.93,-552.88"/>
</g>
<!-- 9 -->
<g id="node10" class="node">
<title>9</title>
<path fill="none" stroke="#d87d56" stroke-width="2" d="M153.5,-612C153.5,-612 115.5,-612 115.5,-612 109.5,-612 103.5,-606 103.5,-600 103.5,-600 103.5,-588 103.5,-588 103.5,-582 109.5,-576 115.5,-576 115.5,-576 153.5,-576 153.5,-576 159.5,-576 165.5,-582 165.5,-588 165.5,-588 165.5,-600 165.5,-600 165.5,-606 159.5,-612 153.5,-612"/>
<text text-anchor="middle" x="134.5" y="-591.5" font-family="sans" font-size="10.00">bwa_mem</text>
</g>
<!-- 9&#45;&gt;7 -->
<g id="edge9" class="edge">
<title>9&#45;&gt;7</title>
<path fill="none" stroke="grey" stroke-width="2" d="M127.43,-575.34C124.7,-568.51 121.5,-560.5 118.43,-552.83"/>
<polygon fill="grey" stroke="grey" stroke-width="2" points="121.75,-551.7 114.78,-543.71 115.25,-554.3 121.75,-551.7"/>
</g>
<!-- 10 -->
<g id="node11" class="node">
<title>10</title>
<path fill="none" stroke="#59d856" stroke-width="2" d="M143,-684C143,-684 104,-684 104,-684 98,-684 92,-678 92,-672 92,-672 92,-660 92,-660 92,-654 98,-648 104,-648 104,-648 143,-648 143,-648 149,-648 155,-654 155,-660 155,-660 155,-672 155,-672 155,-678 149,-684 143,-684"/>
<text text-anchor="middle" x="123.5" y="-663.5" font-family="sans" font-size="10.00">bwa_index</text>
</g>
<!-- 10&#45;&gt;9 -->
<g id="edge11" class="edge">
<title>10&#45;&gt;9</title>
<path fill="none" stroke="grey" stroke-width="2" d="M126.28,-647.34C127.31,-640.75 128.52,-633.08 129.68,-625.67"/>
<polygon fill="grey" stroke="grey" stroke-width="2" points="133.12,-626.31 131.22,-615.89 126.21,-625.23 133.12,-626.31"/>
</g>
<!-- 11 -->
<g id="node12" class="node">
<title>11</title>
<path fill="none" stroke="#56a2d8" stroke-width="2" d="M226,-684C226,-684 185,-684 185,-684 179,-684 173,-678 173,-672 173,-672 173,-660 173,-660 173,-654 179,-648 185,-648 185,-648 226,-648 226,-648 232,-648 238,-654 238,-660 238,-660 238,-672 238,-672 238,-678 232,-684 226,-684"/>
<text text-anchor="middle" x="205.5" y="-663.5" font-family="sans" font-size="10.00">filter_reads</text>
</g>
<!-- 11&#45;&gt;9 -->
<g id="edge12" class="edge">
<title>11&#45;&gt;9</title>
<path fill="none" stroke="grey" stroke-width="2" d="M187.58,-647.34C179.74,-639.6 170.36,-630.36 161.69,-621.81"/>
<polygon fill="grey" stroke="grey" stroke-width="2" points="164.39,-619.56 154.81,-615.03 159.48,-624.54 164.39,-619.56"/>
</g>
<!-- 12 -->
<g id="node13" class="node">
<title>12</title>
<path fill="none" stroke="#d8a456" stroke-width="2" d="M247,-540C247,-540 164,-540 164,-540 158,-540 152,-534 152,-528 152,-528 152,-516 152,-516 152,-510 158,-504 164,-504 164,-504 247,-504 247,-504 253,-504 259,-510 259,-516 259,-516 259,-528 259,-528 259,-534 253,-540 247,-540"/>
<text text-anchor="middle" x="205.5" y="-519.5" font-family="sans" font-size="10.00">fastqc_filtered_reads</text>
</g>
<!-- 11&#45;&gt;12 -->
<g id="edge13" class="edge">
<title>11&#45;&gt;12</title>
<path fill="none" stroke="grey" stroke-width="2" d="M205.5,-647.02C205.5,-623.54 205.5,-582.11 205.5,-553.64"/>
<polygon fill="grey" stroke="grey" stroke-width="2" points="209,-553.87 205.5,-543.87 202,-553.87 209,-553.87"/>
</g>
<!-- 12&#45;&gt;0 -->
<g id="edge1" class="edge">
<title>12&#45;&gt;0</title>
<path fill="none" stroke="grey" stroke-width="2" d="M205.29,-503.07C205,-476.13 204.5,-423.62 204.5,-379 204.5,-379 204.5,-379 204.5,-161 204.5,-121.39 191.83,-77.23 181.96,-48.83"/>
<polygon fill="grey" stroke="grey" stroke-width="2" points="185.26,-47.67 178.57,-39.45 178.68,-50.05 185.26,-47.67"/>
</g>
</g>
</svg>
