<?xml version="1.0" encoding="UTF-8" standalone="no"?>
<!DOCTYPE svg PUBLIC "-//W3C//DTD SVG 1.1//EN"
 "http://www.w3.org/Graphics/SVG/1.1/DTD/svg11.dtd">
<!-- Generated by graphviz version 7.1.0 (0)
 -->
<!-- Title: snakemake_dag Pages: 1 -->
<svg width="216pt" height="692pt"
 viewBox="0.00 0.00 216.00 692.00" xmlns="http://www.w3.org/2000/svg" xmlns:xlink="http://www.w3.org/1999/xlink">
<g id="graph0" class="graph" transform="scale(1 1) rotate(0) translate(4 688)">
<title>snakemake_dag</title>
<polygon fill="white" stroke="none" points="-4,4 -4,-688 212,-688 212,4 -4,4"/>
<!-- 0 -->
<g id="node1" class="node">
<title>0</title>
<path fill="none" stroke="#569ad8" stroke-width="2" d="M103.5,-36C103.5,-36 73.5,-36 73.5,-36 67.5,-36 61.5,-30 61.5,-24 61.5,-24 61.5,-12 61.5,-12 61.5,-6 67.5,0 73.5,0 73.5,0 103.5,0 103.5,0 109.5,0 115.5,-6 115.5,-12 115.5,-12 115.5,-24 115.5,-24 115.5,-30 109.5,-36 103.5,-36"/>
<text text-anchor="middle" x="88.5" y="-15.5" font-family="sans" font-size="10.00">all</text>
</g>
<!-- 1 -->
<g id="node2" class="node">
<title>1</title>
<path fill="none" stroke="#56d87b" stroke-width="2" d="M115,-108C115,-108 62,-108 62,-108 56,-108 50,-102 50,-96 50,-96 50,-84 50,-84 50,-78 56,-72 62,-72 62,-72 115,-72 115,-72 121,-72 127,-78 127,-84 127,-84 127,-96 127,-96 127,-102 121,-108 115,-108"/>
<text text-anchor="middle" x="88.5" y="-87.5" font-family="sans" font-size="10.00">visualise_tree</text>
</g>
<!-- 1&#45;&gt;0 -->
<g id="edge1" class="edge">
<title>1&#45;&gt;0</title>
<path fill="none" stroke="grey" stroke-width="2" d="M88.5,-71.34C88.5,-64.75 88.5,-57.08 88.5,-49.67"/>
<polygon fill="grey" stroke="grey" stroke-width="2" points="92,-49.93 88.5,-39.93 85,-49.93 92,-49.93"/>
</g>
<!-- 2 -->
<g id="node3" class="node">
<title>2</title>
<path fill="none" stroke="#d85656" stroke-width="2" d="M103.5,-180C103.5,-180 73.5,-180 73.5,-180 67.5,-180 61.5,-174 61.5,-168 61.5,-168 61.5,-156 61.5,-156 61.5,-150 67.5,-144 73.5,-144 73.5,-144 103.5,-144 103.5,-144 109.5,-144 115.5,-150 115.5,-156 115.5,-156 115.5,-168 115.5,-168 115.5,-174 109.5,-180 103.5,-180"/>
<text text-anchor="middle" x="88.5" y="-159.5" font-family="sans" font-size="10.00">tree</text>
</g>
<!-- 2&#45;&gt;1 -->
<g id="edge2" class="edge">
<title>2&#45;&gt;1</title>
<path fill="none" stroke="grey" stroke-width="2" d="M88.5,-143.34C88.5,-136.75 88.5,-129.08 88.5,-121.67"/>
<polygon fill="grey" stroke="grey" stroke-width="2" points="92,-121.93 88.5,-111.93 85,-121.93 92,-121.93"/>
</g>
<!-- 3 -->
<g id="node4" class="node">
<title>3</title>
<path fill="none" stroke="#b6d856" stroke-width="2" d="M103.5,-252C103.5,-252 73.5,-252 73.5,-252 67.5,-252 61.5,-246 61.5,-240 61.5,-240 61.5,-228 61.5,-228 61.5,-222 67.5,-216 73.5,-216 73.5,-216 103.5,-216 103.5,-216 109.5,-216 115.5,-222 115.5,-228 115.5,-228 115.5,-240 115.5,-240 115.5,-246 109.5,-252 103.5,-252"/>
<text text-anchor="middle" x="88.5" y="-231.5" font-family="sans" font-size="10.00">merge</text>
</g>
<!-- 3&#45;&gt;2 -->
<g id="edge3" class="edge">
<title>3&#45;&gt;2</title>
<path fill="none" stroke="grey" stroke-width="2" d="M88.5,-215.34C88.5,-208.75 88.5,-201.08 88.5,-193.67"/>
<polygon fill="grey" stroke="grey" stroke-width="2" points="92,-193.93 88.5,-183.93 85,-193.93 92,-193.93"/>
</g>
<!-- 4 -->
<g id="node5" class="node">
<title>4</title>
<path fill="none" stroke="#56d89a" stroke-width="2" d="M103.5,-324C103.5,-324 73.5,-324 73.5,-324 67.5,-324 61.5,-318 61.5,-312 61.5,-312 61.5,-300 61.5,-300 61.5,-294 67.5,-288 73.5,-288 73.5,-288 103.5,-288 103.5,-288 109.5,-288 115.5,-294 115.5,-300 115.5,-300 115.5,-312 115.5,-312 115.5,-318 109.5,-324 103.5,-324"/>
<text text-anchor="middle" x="88.5" y="-303.5" font-family="sans" font-size="10.00">flatten</text>
</g>
<!-- 4&#45;&gt;3 -->
<g id="edge4" class="edge">
<title>4&#45;&gt;3</title>
<path fill="none" stroke="grey" stroke-width="2" d="M88.5,-287.34C88.5,-280.75 88.5,-273.08 88.5,-265.67"/>
<polygon fill="grey" stroke="grey" stroke-width="2" points="92,-265.93 88.5,-255.93 85,-265.93 92,-265.93"/>
</g>
<!-- 5 -->
<g id="node6" class="node">
<title>5</title>
<path fill="none" stroke="#56b9d8" stroke-width="2" d="M110.5,-396C110.5,-396 66.5,-396 66.5,-396 60.5,-396 54.5,-390 54.5,-384 54.5,-384 54.5,-372 54.5,-372 54.5,-366 60.5,-360 66.5,-360 66.5,-360 110.5,-360 110.5,-360 116.5,-360 122.5,-366 122.5,-372 122.5,-372 122.5,-384 122.5,-384 122.5,-390 116.5,-396 110.5,-396"/>
<text text-anchor="middle" x="88.5" y="-375.5" font-family="sans" font-size="10.00">extract_cds</text>
</g>
<!-- 5&#45;&gt;4 -->
<g id="edge5" class="edge">
<title>5&#45;&gt;4</title>
<path fill="none" stroke="grey" stroke-width="2" d="M88.5,-359.34C88.5,-352.75 88.5,-345.08 88.5,-337.67"/>
<polygon fill="grey" stroke="grey" stroke-width="2" points="92,-337.93 88.5,-327.93 85,-337.93 92,-337.93"/>
</g>
<!-- 6 -->
<g id="node7" class="node">
<title>6</title>
<path fill="none" stroke="#78d856" stroke-width="2" d="M108.5,-468C108.5,-468 68.5,-468 68.5,-468 62.5,-468 56.5,-462 56.5,-456 56.5,-456 56.5,-444 56.5,-444 56.5,-438 62.5,-432 68.5,-432 68.5,-432 108.5,-432 108.5,-432 114.5,-432 120.5,-438 120.5,-444 120.5,-444 120.5,-456 120.5,-456 120.5,-462 114.5,-468 108.5,-468"/>
<text text-anchor="middle" x="88.5" y="-447.5" font-family="sans" font-size="10.00">consensus</text>
</g>
<!-- 6&#45;&gt;5 -->
<g id="edge6" class="edge">
<title>6&#45;&gt;5</title>
<path fill="none" stroke="grey" stroke-width="2" d="M88.5,-431.34C88.5,-424.75 88.5,-417.08 88.5,-409.67"/>
<polygon fill="grey" stroke="grey" stroke-width="2" points="92,-409.93 88.5,-399.93 85,-409.93 92,-409.93"/>
</g>
<!-- 7 -->
<g id="node8" class="node">
<title>7</title>
<path fill="none" stroke="#d8b456" stroke-width="2" d="M103.5,-540C103.5,-540 73.5,-540 73.5,-540 67.5,-540 61.5,-534 61.5,-528 61.5,-528 61.5,-516 61.5,-516 61.5,-510 67.5,-504 73.5,-504 73.5,-504 103.5,-504 103.5,-504 109.5,-504 115.5,-510 115.5,-516 115.5,-516 115.5,-528 115.5,-528 115.5,-534 109.5,-540 103.5,-540"/>
<text text-anchor="middle" x="88.5" y="-519.5" font-family="sans" font-size="10.00">pileup</text>
</g>
<!-- 7&#45;&gt;6 -->
<g id="edge7" class="edge">
<title>7&#45;&gt;6</title>
<path fill="none" stroke="grey" stroke-width="2" d="M88.5,-503.34C88.5,-496.75 88.5,-489.08 88.5,-481.67"/>
<polygon fill="grey" stroke="grey" stroke-width="2" points="92,-481.93 88.5,-471.93 85,-481.93 92,-481.93"/>
</g>
<!-- 8 -->
<g id="node9" class="node">
<title>8</title>
<path fill="none" stroke="#567bd8" stroke-width="2" d="M73,-612C73,-612 12,-612 12,-612 6,-612 0,-606 0,-600 0,-600 0,-588 0,-588 0,-582 6,-576 12,-576 12,-576 73,-576 73,-576 79,-576 85,-582 85,-588 85,-588 85,-600 85,-600 85,-606 79,-612 73,-612"/>
<text text-anchor="middle" x="42.5" y="-591.5" font-family="sans" font-size="10.00">samtools_index</text>
</g>
<!-- 8&#45;&gt;7 -->
<g id="edge9" class="edge">
<title>8&#45;&gt;7</title>
<path fill="none" stroke="grey" stroke-width="2" d="M54.11,-575.34C58.81,-568.18 64.37,-559.73 69.62,-551.73"/>
<polygon fill="grey" stroke="grey" stroke-width="2" points="72.51,-553.71 75.07,-543.43 66.66,-549.87 72.51,-553.71"/>
</g>
<!-- 9 -->
<g id="node10" class="node">
<title>9</title>
<path fill="none" stroke="#97d856" stroke-width="2" d="M153.5,-612C153.5,-612 115.5,-612 115.5,-612 109.5,-612 103.5,-606 103.5,-600 103.5,-600 103.5,-588 103.5,-588 103.5,-582 109.5,-576 115.5,-576 115.5,-576 153.5,-576 153.5,-576 159.5,-576 165.5,-582 165.5,-588 165.5,-588 165.5,-600 165.5,-600 165.5,-606 159.5,-612 153.5,-612"/>
<text text-anchor="middle" x="134.5" y="-591.5" font-family="sans" font-size="10.00">bwa_mem</text>
</g>
<!-- 9&#45;&gt;7 -->
<g id="edge8" class="edge">
<title>9&#45;&gt;7</title>
<path fill="none" stroke="grey" stroke-width="2" d="M122.89,-575.34C118.19,-568.18 112.63,-559.73 107.38,-551.73"/>
<polygon fill="grey" stroke="grey" stroke-width="2" points="110.34,-549.87 101.93,-543.43 104.49,-553.71 110.34,-549.87"/>
</g>
<!-- 10 -->
<g id="node11" class="node">
<title>10</title>
<path fill="none" stroke="#59d856" stroke-width="2" d="M113,-684C113,-684 74,-684 74,-684 68,-684 62,-678 62,-672 62,-672 62,-660 62,-660 62,-654 68,-648 74,-648 74,-648 113,-648 113,-648 119,-648 125,-654 125,-660 125,-660 125,-672 125,-672 125,-678 119,-684 113,-684"/>
<text text-anchor="middle" x="93.5" y="-663.5" font-family="sans" font-size="10.00">bwa_index</text>
</g>
<!-- 10&#45;&gt;9 -->
<g id="edge10" class="edge">
<title>10&#45;&gt;9</title>
<path fill="none" stroke="grey" stroke-width="2" d="M103.85,-647.34C107.99,-640.26 112.87,-631.92 117.51,-624"/>
<polygon fill="grey" stroke="grey" stroke-width="2" points="120.45,-625.91 122.48,-615.51 114.41,-622.37 120.45,-625.91"/>
</g>
<!-- 11 -->
<g id="node12" class="node">
<title>11</title>
<path fill="none" stroke="#d89556" stroke-width="2" d="M196,-684C196,-684 155,-684 155,-684 149,-684 143,-678 143,-672 143,-672 143,-660 143,-660 143,-654 149,-648 155,-648 155,-648 196,-648 196,-648 202,-648 208,-654 208,-660 208,-660 208,-672 208,-672 208,-678 202,-684 196,-684"/>
<text text-anchor="middle" x="175.5" y="-663.5" font-family="sans" font-size="10.00">filter_reads</text>
</g>
<!-- 11&#45;&gt;9 -->
<g id="edge11" class="edge">
<title>11&#45;&gt;9</title>
<path fill="none" stroke="grey" stroke-width="2" d="M165.15,-647.34C161.01,-640.26 156.13,-631.92 151.49,-624"/>
<polygon fill="grey" stroke="grey" stroke-width="2" points="154.59,-622.37 146.52,-615.51 148.55,-625.91 154.59,-622.37"/>
</g>
</g>
</svg>
