<?xml version="1.0" encoding="UTF-8" standalone="no"?>
<!DOCTYPE svg PUBLIC "-//W3C//DTD SVG 1.1//EN"
 "http://www.w3.org/Graphics/SVG/1.1/DTD/svg11.dtd">
<!-- Generated by graphviz version 7.1.0 (0)
 -->
<!-- Title: snakemake_dag Pages: 1 -->
<svg width="292pt" height="692pt"
 viewBox="0.00 0.00 292.00 692.00" xmlns="http://www.w3.org/2000/svg" xmlns:xlink="http://www.w3.org/1999/xlink">
<g id="graph0" class="graph" transform="scale(1 1) rotate(0) translate(4 688)">
<title>snakemake_dag</title>
<polygon fill="white" stroke="none" points="-4,4 -4,-688 288,-688 288,4 -4,4"/>
<!-- 0 -->
<g id="node1" class="node">
<title>0</title>
<path fill="none" stroke="#d8b456" stroke-width="2" d="M180.5,-36C180.5,-36 150.5,-36 150.5,-36 144.5,-36 138.5,-30 138.5,-24 138.5,-24 138.5,-12 138.5,-12 138.5,-6 144.5,0 150.5,0 150.5,0 180.5,0 180.5,0 186.5,0 192.5,-6 192.5,-12 192.5,-12 192.5,-24 192.5,-24 192.5,-30 186.5,-36 180.5,-36"/>
<text text-anchor="middle" x="165.5" y="-15.5" font-family="sans" font-size="10.00">all</text>
</g>
<!-- 1 -->
<g id="node2" class="node">
<title>1</title>
<path fill="none" stroke="#569ad8" stroke-width="2" d="M120,-108C120,-108 67,-108 67,-108 61,-108 55,-102 55,-96 55,-96 55,-84 55,-84 55,-78 61,-72 67,-72 67,-72 120,-72 120,-72 126,-72 132,-78 132,-84 132,-84 132,-96 132,-96 132,-102 126,-108 120,-108"/>
<text text-anchor="middle" x="93.5" y="-87.5" font-family="sans" font-size="10.00">visualise_tree</text>
</g>
<!-- 1&#45;&gt;0 -->
<g id="edge3" class="edge">
<title>1&#45;&gt;0</title>
<path fill="none" stroke="grey" stroke-width="2" d="M111.67,-71.34C119.62,-63.6 129.13,-54.36 137.93,-45.81"/>
<polygon fill="grey" stroke="grey" stroke-width="2" points="140.19,-48.49 144.92,-39.01 135.31,-43.47 140.19,-48.49"/>
</g>
<!-- 2 -->
<g id="node3" class="node">
<title>2</title>
<path fill="none" stroke="#d85656" stroke-width="2" d="M102.5,-180C102.5,-180 72.5,-180 72.5,-180 66.5,-180 60.5,-174 60.5,-168 60.5,-168 60.5,-156 60.5,-156 60.5,-150 66.5,-144 72.5,-144 72.5,-144 102.5,-144 102.5,-144 108.5,-144 114.5,-150 114.5,-156 114.5,-156 114.5,-168 114.5,-168 114.5,-174 108.5,-180 102.5,-180"/>
<text text-anchor="middle" x="87.5" y="-159.5" font-family="sans" font-size="10.00">tree</text>
</g>
<!-- 2&#45;&gt;1 -->
<g id="edge4" class="edge">
<title>2&#45;&gt;1</title>
<path fill="none" stroke="grey" stroke-width="2" d="M89.01,-143.34C89.58,-136.75 90.24,-129.08 90.87,-121.67"/>
<polygon fill="grey" stroke="grey" stroke-width="2" points="94.34,-122.18 91.71,-111.92 87.37,-121.58 94.34,-122.18"/>
</g>
<!-- 3 -->
<g id="node4" class="node">
<title>3</title>
<path fill="none" stroke="#56d8b9" stroke-width="2" d="M97.5,-252C97.5,-252 67.5,-252 67.5,-252 61.5,-252 55.5,-246 55.5,-240 55.5,-240 55.5,-228 55.5,-228 55.5,-222 61.5,-216 67.5,-216 67.5,-216 97.5,-216 97.5,-216 103.5,-216 109.5,-222 109.5,-228 109.5,-228 109.5,-240 109.5,-240 109.5,-246 103.5,-252 97.5,-252"/>
<text text-anchor="middle" x="82.5" y="-231.5" font-family="sans" font-size="10.00">merge</text>
</g>
<!-- 3&#45;&gt;2 -->
<g id="edge5" class="edge">
<title>3&#45;&gt;2</title>
<path fill="none" stroke="grey" stroke-width="2" d="M83.76,-215.34C84.23,-208.75 84.78,-201.08 85.31,-193.67"/>
<polygon fill="grey" stroke="grey" stroke-width="2" points="88.78,-194.15 86.01,-183.92 81.8,-193.65 88.78,-194.15"/>
</g>
<!-- 4 -->
<g id="node5" class="node">
<title>4</title>
<path fill="none" stroke="#d89556" stroke-width="2" d="M95.5,-324C95.5,-324 65.5,-324 65.5,-324 59.5,-324 53.5,-318 53.5,-312 53.5,-312 53.5,-300 53.5,-300 53.5,-294 59.5,-288 65.5,-288 65.5,-288 95.5,-288 95.5,-288 101.5,-288 107.5,-294 107.5,-300 107.5,-300 107.5,-312 107.5,-312 107.5,-318 101.5,-324 95.5,-324"/>
<text text-anchor="middle" x="80.5" y="-303.5" font-family="sans" font-size="10.00">flatten</text>
</g>
<!-- 4&#45;&gt;3 -->
<g id="edge6" class="edge">
<title>4&#45;&gt;3</title>
<path fill="none" stroke="grey" stroke-width="2" d="M81,-287.34C81.19,-280.75 81.41,-273.08 81.62,-265.67"/>
<polygon fill="grey" stroke="grey" stroke-width="2" points="85.11,-266.02 81.9,-255.93 78.12,-265.82 85.11,-266.02"/>
</g>
<!-- 5 -->
<g id="node6" class="node">
<title>5</title>
<path fill="none" stroke="#d87556" stroke-width="2" d="M101.5,-396C101.5,-396 57.5,-396 57.5,-396 51.5,-396 45.5,-390 45.5,-384 45.5,-384 45.5,-372 45.5,-372 45.5,-366 51.5,-360 57.5,-360 57.5,-360 101.5,-360 101.5,-360 107.5,-360 113.5,-366 113.5,-372 113.5,-372 113.5,-384 113.5,-384 113.5,-390 107.5,-396 101.5,-396"/>
<text text-anchor="middle" x="79.5" y="-375.5" font-family="sans" font-size="10.00">extract_cds</text>
</g>
<!-- 5&#45;&gt;4 -->
<g id="edge7" class="edge">
<title>5&#45;&gt;4</title>
<path fill="none" stroke="grey" stroke-width="2" d="M79.75,-359.34C79.85,-352.75 79.96,-345.08 80.06,-337.67"/>
<polygon fill="grey" stroke="grey" stroke-width="2" points="83.56,-337.98 80.2,-327.93 76.56,-337.88 83.56,-337.98"/>
</g>
<!-- 6 -->
<g id="node7" class="node">
<title>6</title>
<path fill="none" stroke="#56d87b" stroke-width="2" d="M98.5,-468C98.5,-468 58.5,-468 58.5,-468 52.5,-468 46.5,-462 46.5,-456 46.5,-456 46.5,-444 46.5,-444 46.5,-438 52.5,-432 58.5,-432 58.5,-432 98.5,-432 98.5,-432 104.5,-432 110.5,-438 110.5,-444 110.5,-444 110.5,-456 110.5,-456 110.5,-462 104.5,-468 98.5,-468"/>
<text text-anchor="middle" x="78.5" y="-447.5" font-family="sans" font-size="10.00">consensus</text>
</g>
<!-- 6&#45;&gt;5 -->
<g id="edge8" class="edge">
<title>6&#45;&gt;5</title>
<path fill="none" stroke="grey" stroke-width="2" d="M78.75,-431.34C78.85,-424.75 78.96,-417.08 79.06,-409.67"/>
<polygon fill="grey" stroke="grey" stroke-width="2" points="82.56,-409.98 79.2,-399.93 75.56,-409.88 82.56,-409.98"/>
</g>
<!-- 7 -->
<g id="node8" class="node">
<title>7</title>
<path fill="none" stroke="#567bd8" stroke-width="2" d="M74.5,-540C74.5,-540 44.5,-540 44.5,-540 38.5,-540 32.5,-534 32.5,-528 32.5,-528 32.5,-516 32.5,-516 32.5,-510 38.5,-504 44.5,-504 44.5,-504 74.5,-504 74.5,-504 80.5,-504 86.5,-510 86.5,-516 86.5,-516 86.5,-528 86.5,-528 86.5,-534 80.5,-540 74.5,-540"/>
<text text-anchor="middle" x="59.5" y="-519.5" font-family="sans" font-size="10.00">pileup</text>
</g>
<!-- 7&#45;&gt;6 -->
<g id="edge9" class="edge">
<title>7&#45;&gt;6</title>
<path fill="none" stroke="grey" stroke-width="2" d="M64.29,-503.34C66.1,-496.67 68.22,-488.89 70.25,-481.39"/>
<polygon fill="grey" stroke="grey" stroke-width="2" points="73.61,-482.39 72.85,-471.82 66.85,-480.56 73.61,-482.39"/>
</g>
<!-- 8 -->
<g id="node9" class="node">
<title>8</title>
<path fill="none" stroke="#97d856" stroke-width="2" d="M73,-612C73,-612 12,-612 12,-612 6,-612 0,-606 0,-600 0,-600 0,-588 0,-588 0,-582 6,-576 12,-576 12,-576 73,-576 73,-576 79,-576 85,-582 85,-588 85,-588 85,-600 85,-600 85,-606 79,-612 73,-612"/>
<text text-anchor="middle" x="42.5" y="-591.5" font-family="sans" font-size="10.00">samtools_index</text>
</g>
<!-- 8&#45;&gt;7 -->
<g id="edge11" class="edge">
<title>8&#45;&gt;7</title>
<path fill="none" stroke="grey" stroke-width="2" d="M46.79,-575.34C48.41,-568.67 50.3,-560.89 52.12,-553.39"/>
<polygon fill="grey" stroke="grey" stroke-width="2" points="55.48,-554.39 54.44,-543.84 48.68,-552.73 55.48,-554.39"/>
</g>
<!-- 9 -->
<g id="node10" class="node">
<title>9</title>
<path fill="none" stroke="#56d89a" stroke-width="2" d="M153.5,-612C153.5,-612 115.5,-612 115.5,-612 109.5,-612 103.5,-606 103.5,-600 103.5,-600 103.5,-588 103.5,-588 103.5,-582 109.5,-576 115.5,-576 115.5,-576 153.5,-576 153.5,-576 159.5,-576 165.5,-582 165.5,-588 165.5,-588 165.5,-600 165.5,-600 165.5,-606 159.5,-612 153.5,-612"/>
<text text-anchor="middle" x="134.5" y="-591.5" font-family="sans" font-size="10.00">bwa_mem</text>
</g>
<!-- 9&#45;&gt;7 -->
<g id="edge10" class="edge">
<title>9&#45;&gt;7</title>
<path fill="none" stroke="grey" stroke-width="2" d="M115.57,-575.34C107.2,-567.52 97.17,-558.16 87.93,-549.53"/>
<polygon fill="grey" stroke="grey" stroke-width="2" points="90.59,-547.23 80.89,-542.97 85.82,-552.35 90.59,-547.23"/>
</g>
<!-- 14 -->
<g id="node15" class="node">
<title>14</title>
<path fill="none" stroke="#78d856" stroke-width="2" d="M146.5,-540C146.5,-540 116.5,-540 116.5,-540 110.5,-540 104.5,-534 104.5,-528 104.5,-528 104.5,-516 104.5,-516 104.5,-510 110.5,-504 116.5,-504 116.5,-504 146.5,-504 146.5,-504 152.5,-504 158.5,-510 158.5,-516 158.5,-516 158.5,-528 158.5,-528 158.5,-534 152.5,-540 146.5,-540"/>
<text text-anchor="middle" x="131.5" y="-519.5" font-family="sans" font-size="10.00">flagstat</text>
</g>
<!-- 9&#45;&gt;14 -->
<g id="edge17" class="edge">
<title>9&#45;&gt;14</title>
<path fill="none" stroke="grey" stroke-width="2" d="M133.74,-575.34C133.46,-568.75 133.13,-561.08 132.81,-553.67"/>
<polygon fill="grey" stroke="grey" stroke-width="2" points="136.32,-553.77 132.4,-543.93 129.33,-554.07 136.32,-553.77"/>
</g>
<!-- 10 -->
<g id="node11" class="node">
<title>10</title>
<path fill="none" stroke="#56b9d8" stroke-width="2" d="M154,-684C154,-684 115,-684 115,-684 109,-684 103,-678 103,-672 103,-672 103,-660 103,-660 103,-654 109,-648 115,-648 115,-648 154,-648 154,-648 160,-648 166,-654 166,-660 166,-660 166,-672 166,-672 166,-678 160,-684 154,-684"/>
<text text-anchor="middle" x="134.5" y="-663.5" font-family="sans" font-size="10.00">bwa_index</text>
</g>
<!-- 10&#45;&gt;9 -->
<g id="edge12" class="edge">
<title>10&#45;&gt;9</title>
<path fill="none" stroke="grey" stroke-width="2" d="M134.5,-647.34C134.5,-640.75 134.5,-633.08 134.5,-625.67"/>
<polygon fill="grey" stroke="grey" stroke-width="2" points="138,-625.93 134.5,-615.93 131,-625.93 138,-625.93"/>
</g>
<!-- 11 -->
<g id="node12" class="node">
<title>11</title>
<path fill="none" stroke="#56d8d8" stroke-width="2" d="M245,-684C245,-684 204,-684 204,-684 198,-684 192,-678 192,-672 192,-672 192,-660 192,-660 192,-654 198,-648 204,-648 204,-648 245,-648 245,-648 251,-648 257,-654 257,-660 257,-660 257,-672 257,-672 257,-678 251,-684 245,-684"/>
<text text-anchor="middle" x="224.5" y="-663.5" font-family="sans" font-size="10.00">filter_reads</text>
</g>
<!-- 11&#45;&gt;9 -->
<g id="edge13" class="edge">
<title>11&#45;&gt;9</title>
<path fill="none" stroke="grey" stroke-width="2" d="M201.79,-647.34C191.42,-639.27 178.95,-629.57 167.57,-620.72"/>
<polygon fill="grey" stroke="grey" stroke-width="2" points="169.95,-618.14 159.91,-614.76 165.65,-623.66 169.95,-618.14"/>
</g>
<!-- 12 -->
<g id="node13" class="node">
<title>12</title>
<path fill="none" stroke="#d6d856" stroke-width="2" d="M272,-540C272,-540 189,-540 189,-540 183,-540 177,-534 177,-528 177,-528 177,-516 177,-516 177,-510 183,-504 189,-504 189,-504 272,-504 272,-504 278,-504 284,-510 284,-516 284,-516 284,-528 284,-528 284,-534 278,-540 272,-540"/>
<text text-anchor="middle" x="230.5" y="-519.5" font-family="sans" font-size="10.00">fastqc_filtered_reads</text>
</g>
<!-- 11&#45;&gt;12 -->
<g id="edge14" class="edge">
<title>11&#45;&gt;12</title>
<path fill="none" stroke="grey" stroke-width="2" d="M225.26,-647.02C226.25,-623.54 228,-582.11 229.21,-553.64"/>
<polygon fill="grey" stroke="grey" stroke-width="2" points="232.69,-554 229.62,-543.86 225.7,-553.71 232.69,-554"/>
</g>
<!-- 12&#45;&gt;0 -->
<g id="edge1" class="edge">
<title>12&#45;&gt;0</title>
<path fill="none" stroke="grey" stroke-width="2" d="M229.46,-503.07C228,-476.15 225.5,-423.65 225.5,-379 225.5,-379 225.5,-379 225.5,-161 225.5,-119.08 203.04,-75.3 185.6,-47.63"/>
<polygon fill="grey" stroke="grey" stroke-width="2" points="188.58,-45.79 180.18,-39.34 182.73,-49.63 188.58,-45.79"/>
</g>
<!-- 13 -->
<g id="node14" class="node">
<title>13</title>
<path fill="none" stroke="#b6d856" stroke-width="2" d="M180.5,-468C180.5,-468 150.5,-468 150.5,-468 144.5,-468 138.5,-462 138.5,-456 138.5,-456 138.5,-444 138.5,-444 138.5,-438 144.5,-432 150.5,-432 150.5,-432 180.5,-432 180.5,-432 186.5,-432 192.5,-438 192.5,-444 192.5,-444 192.5,-456 192.5,-456 192.5,-462 186.5,-468 180.5,-468"/>
<text text-anchor="middle" x="165.5" y="-447.5" font-family="sans" font-size="10.00">multiqc</text>
</g>
<!-- 12&#45;&gt;13 -->
<g id="edge15" class="edge">
<title>12&#45;&gt;13</title>
<path fill="none" stroke="grey" stroke-width="2" d="M214.1,-503.34C207.07,-495.77 198.7,-486.75 190.9,-478.35"/>
<polygon fill="grey" stroke="grey" stroke-width="2" points="193.55,-476.07 184.18,-471.12 188.42,-480.83 193.55,-476.07"/>
</g>
<!-- 13&#45;&gt;0 -->
<g id="edge2" class="edge">
<title>13&#45;&gt;0</title>
<path fill="none" stroke="grey" stroke-width="2" d="M165.5,-431.07C165.5,-404.13 165.5,-351.62 165.5,-307 165.5,-307 165.5,-307 165.5,-161 165.5,-122.65 165.5,-78.48 165.5,-49.72"/>
<polygon fill="grey" stroke="grey" stroke-width="2" points="169,-49.96 165.5,-39.96 162,-49.96 169,-49.96"/>
</g>
<!-- 14&#45;&gt;13 -->
<g id="edge16" class="edge">
<title>14&#45;&gt;13</title>
<path fill="none" stroke="grey" stroke-width="2" d="M140.08,-503.34C143.44,-496.43 147.38,-488.31 151.14,-480.56"/>
<polygon fill="grey" stroke="grey" stroke-width="2" points="154.26,-482.15 155.48,-471.62 147.96,-479.09 154.26,-482.15"/>
</g>
</g>
</svg>
