<?xml version="1.0" encoding="UTF-8" standalone="no"?>
<!DOCTYPE svg PUBLIC "-//W3C//DTD SVG 1.1//EN"
 "http://www.w3.org/Graphics/SVG/1.1/DTD/svg11.dtd">
<!-- Generated by graphviz version 7.1.0 (0)
 -->
<!-- Title: snakemake_dag Pages: 1 -->
<svg width="592pt" height="692pt"
 viewBox="0.00 0.00 592.00 692.00" xmlns="http://www.w3.org/2000/svg" xmlns:xlink="http://www.w3.org/1999/xlink">
<g id="graph0" class="graph" transform="scale(1 1) rotate(0) translate(4 688)">
<title>snakemake_dag</title>
<polygon fill="white" stroke="none" points="-4,4 -4,-688 588,-688 588,4 -4,4"/>
<!-- 0 -->
<g id="node1" class="node">
<title>0</title>
<path fill="none" stroke="#61d856" stroke-width="2" d="M263,-36C263,-36 233,-36 233,-36 227,-36 221,-30 221,-24 221,-24 221,-12 221,-12 221,-6 227,0 233,0 233,0 263,0 263,0 269,0 275,-6 275,-12 275,-12 275,-24 275,-24 275,-30 269,-36 263,-36"/>
<text text-anchor="middle" x="248" y="-15.5" font-family="sans" font-size="10.00">all</text>
</g>
<!-- 1 -->
<g id="node2" class="node">
<title>1</title>
<path fill="none" stroke="#78d856" stroke-width="2" d="M241.5,-108C241.5,-108 188.5,-108 188.5,-108 182.5,-108 176.5,-102 176.5,-96 176.5,-96 176.5,-84 176.5,-84 176.5,-78 182.5,-72 188.5,-72 188.5,-72 241.5,-72 241.5,-72 247.5,-72 253.5,-78 253.5,-84 253.5,-84 253.5,-96 253.5,-96 253.5,-102 247.5,-108 241.5,-108"/>
<text text-anchor="middle" x="215" y="-87.5" font-family="sans" font-size="10.00">visualise_tree</text>
</g>
<!-- 1&#45;&gt;0 -->
<g id="edge1" class="edge">
<title>1&#45;&gt;0</title>
<path fill="none" stroke="grey" stroke-width="2" d="M223.33,-71.34C226.59,-64.43 230.41,-56.31 234.07,-48.56"/>
<polygon fill="grey" stroke="grey" stroke-width="2" points="237.17,-50.18 238.27,-39.64 230.84,-47.19 237.17,-50.18"/>
</g>
<!-- 2 -->
<g id="node3" class="node">
<title>2</title>
<path fill="none" stroke="#56d863" stroke-width="2" d="M228,-180C228,-180 198,-180 198,-180 192,-180 186,-174 186,-168 186,-168 186,-156 186,-156 186,-150 192,-144 198,-144 198,-144 228,-144 228,-144 234,-144 240,-150 240,-156 240,-156 240,-168 240,-168 240,-174 234,-180 228,-180"/>
<text text-anchor="middle" x="213" y="-159.5" font-family="sans" font-size="10.00">tree</text>
</g>
<!-- 2&#45;&gt;1 -->
<g id="edge3" class="edge">
<title>2&#45;&gt;1</title>
<path fill="none" stroke="grey" stroke-width="2" d="M213.5,-143.34C213.69,-136.75 213.91,-129.08 214.12,-121.67"/>
<polygon fill="grey" stroke="grey" stroke-width="2" points="217.61,-122.02 214.4,-111.93 210.62,-121.82 217.61,-122.02"/>
</g>
<!-- 3 -->
<g id="node4" class="node">
<title>3</title>
<path fill="none" stroke="#56d0d8" stroke-width="2" d="M47,-252C47,-252 17,-252 17,-252 11,-252 5,-246 5,-240 5,-240 5,-228 5,-228 5,-222 11,-216 17,-216 17,-216 47,-216 47,-216 53,-216 59,-222 59,-228 59,-228 59,-240 59,-240 59,-246 53,-252 47,-252"/>
<text text-anchor="middle" x="32" y="-231.5" font-family="sans" font-size="10.00">merge</text>
</g>
<!-- 3&#45;&gt;2 -->
<g id="edge4" class="edge">
<title>3&#45;&gt;2</title>
<path fill="none" stroke="grey" stroke-width="2" d="M59.91,-220.96C63.96,-219.27 68.08,-217.57 72,-216 105.79,-202.48 144.52,-187.99 172.83,-177.59"/>
<polygon fill="grey" stroke="grey" stroke-width="2" points="174.01,-180.88 182.2,-174.15 171.61,-174.31 174.01,-180.88"/>
</g>
<!-- 4 -->
<g id="node5" class="node">
<title>4</title>
<path fill="none" stroke="#56a2d8" stroke-width="2" d="M42,-324C42,-324 12,-324 12,-324 6,-324 0,-318 0,-312 0,-312 0,-300 0,-300 0,-294 6,-288 12,-288 12,-288 42,-288 42,-288 48,-288 54,-294 54,-300 54,-300 54,-312 54,-312 54,-318 48,-324 42,-324"/>
<text text-anchor="middle" x="27" y="-303.5" font-family="sans" font-size="10.00">flatten</text>
</g>
<!-- 4&#45;&gt;3 -->
<g id="edge5" class="edge">
<title>4&#45;&gt;3</title>
<path fill="none" stroke="grey" stroke-width="2" d="M28.26,-287.34C28.73,-280.75 29.28,-273.08 29.81,-265.67"/>
<polygon fill="grey" stroke="grey" stroke-width="2" points="33.28,-266.15 30.51,-255.92 26.3,-265.65 33.28,-266.15"/>
</g>
<!-- 18 -->
<g id="node19" class="node">
<title>18</title>
<path fill="none" stroke="#d88556" stroke-width="2" d="M207,-252C207,-252 93,-252 93,-252 87,-252 81,-246 81,-240 81,-240 81,-228 81,-228 81,-222 87,-216 93,-216 93,-216 207,-216 207,-216 213,-216 219,-222 219,-228 219,-228 219,-240 219,-240 219,-246 213,-252 207,-252"/>
<text text-anchor="middle" x="150" y="-231.5" font-family="sans" font-size="10.00">create_sample_multiqc_row</text>
</g>
<!-- 4&#45;&gt;18 -->
<g id="edge23" class="edge">
<title>4&#45;&gt;18</title>
<path fill="none" stroke="grey" stroke-width="2" d="M54.91,-289.12C70.49,-280.25 90.23,-269.02 107.67,-259.09"/>
<polygon fill="grey" stroke="grey" stroke-width="2" points="109.15,-262.28 116.11,-254.29 105.69,-256.19 109.15,-262.28"/>
</g>
<!-- 5 -->
<g id="node6" class="node">
<title>5</title>
<path fill="none" stroke="#d8a456" stroke-width="2" d="M119,-396C119,-396 75,-396 75,-396 69,-396 63,-390 63,-384 63,-384 63,-372 63,-372 63,-366 69,-360 75,-360 75,-360 119,-360 119,-360 125,-360 131,-366 131,-372 131,-372 131,-384 131,-384 131,-390 125,-396 119,-396"/>
<text text-anchor="middle" x="97" y="-375.5" font-family="sans" font-size="10.00">extract_cds</text>
</g>
<!-- 5&#45;&gt;4 -->
<g id="edge6" class="edge">
<title>5&#45;&gt;4</title>
<path fill="none" stroke="grey" stroke-width="2" d="M79.34,-359.34C71.69,-351.69 62.56,-342.56 54.08,-334.08"/>
<polygon fill="grey" stroke="grey" stroke-width="2" points="56.59,-331.64 47.04,-327.04 51.64,-336.59 56.59,-331.64"/>
</g>
<!-- 6 -->
<g id="node7" class="node">
<title>6</title>
<path fill="none" stroke="#5673d8" stroke-width="2" d="M290,-468C290,-468 250,-468 250,-468 244,-468 238,-462 238,-456 238,-456 238,-444 238,-444 238,-438 244,-432 250,-432 250,-432 290,-432 290,-432 296,-432 302,-438 302,-444 302,-444 302,-456 302,-456 302,-462 296,-468 290,-468"/>
<text text-anchor="middle" x="270" y="-447.5" font-family="sans" font-size="10.00">consensus</text>
</g>
<!-- 6&#45;&gt;5 -->
<g id="edge7" class="edge">
<title>6&#45;&gt;5</title>
<path fill="none" stroke="grey" stroke-width="2" d="M237.05,-435.67C210.6,-424.97 173.13,-409.8 143.61,-397.86"/>
<polygon fill="grey" stroke="grey" stroke-width="2" points="145.29,-394.76 134.71,-394.26 142.67,-401.25 145.29,-394.76"/>
</g>
<!-- 16 -->
<g id="node17" class="node">
<title>16</title>
<path fill="none" stroke="#56d8a9" stroke-width="2" d="M336.5,-396C336.5,-396 257.5,-396 257.5,-396 251.5,-396 245.5,-390 245.5,-384 245.5,-384 245.5,-372 245.5,-372 245.5,-366 251.5,-360 257.5,-360 257.5,-360 336.5,-360 336.5,-360 342.5,-360 348.5,-366 348.5,-372 348.5,-372 348.5,-384 348.5,-384 348.5,-390 342.5,-396 336.5,-396"/>
<text text-anchor="middle" x="297" y="-375.5" font-family="sans" font-size="10.00">primer_performance</text>
</g>
<!-- 6&#45;&gt;16 -->
<g id="edge22" class="edge">
<title>6&#45;&gt;16</title>
<path fill="none" stroke="grey" stroke-width="2" d="M276.81,-431.34C279.45,-424.51 282.54,-416.5 285.49,-408.83"/>
<polygon fill="grey" stroke="grey" stroke-width="2" points="288.67,-410.32 289.01,-399.73 282.14,-407.8 288.67,-410.32"/>
</g>
<!-- 7 -->
<g id="node8" class="node">
<title>7</title>
<path fill="none" stroke="#56d892" stroke-width="2" d="M345,-540C345,-540 315,-540 315,-540 309,-540 303,-534 303,-528 303,-528 303,-516 303,-516 303,-510 309,-504 315,-504 315,-504 345,-504 345,-504 351,-504 357,-510 357,-516 357,-516 357,-528 357,-528 357,-534 351,-540 345,-540"/>
<text text-anchor="middle" x="330" y="-519.5" font-family="sans" font-size="10.00">pileup</text>
</g>
<!-- 7&#45;&gt;6 -->
<g id="edge8" class="edge">
<title>7&#45;&gt;6</title>
<path fill="none" stroke="grey" stroke-width="2" d="M314.86,-503.34C308.44,-495.85 300.81,-486.95 293.68,-478.63"/>
<polygon fill="grey" stroke="grey" stroke-width="2" points="296.48,-476.51 287.31,-471.2 291.16,-481.07 296.48,-476.51"/>
</g>
<!-- 7&#45;&gt;16 -->
<g id="edge21" class="edge">
<title>7&#45;&gt;16</title>
<path fill="none" stroke="grey" stroke-width="2" d="M326.46,-503.21C322.82,-485.21 316.87,-456.59 311,-432 309.21,-424.5 307.15,-416.44 305.17,-408.93"/>
<polygon fill="grey" stroke="grey" stroke-width="2" points="308.63,-408.29 302.66,-399.54 301.86,-410.1 308.63,-408.29"/>
</g>
<!-- 8 -->
<g id="node9" class="node">
<title>8</title>
<path fill="none" stroke="#d8d356" stroke-width="2" d="M360.5,-612C360.5,-612 299.5,-612 299.5,-612 293.5,-612 287.5,-606 287.5,-600 287.5,-600 287.5,-588 287.5,-588 287.5,-582 293.5,-576 299.5,-576 299.5,-576 360.5,-576 360.5,-576 366.5,-576 372.5,-582 372.5,-588 372.5,-588 372.5,-600 372.5,-600 372.5,-606 366.5,-612 360.5,-612"/>
<text text-anchor="middle" x="330" y="-591.5" font-family="sans" font-size="10.00">samtools_index</text>
</g>
<!-- 8&#45;&gt;7 -->
<g id="edge10" class="edge">
<title>8&#45;&gt;7</title>
<path fill="none" stroke="grey" stroke-width="2" d="M330,-575.34C330,-568.75 330,-561.08 330,-553.67"/>
<polygon fill="grey" stroke="grey" stroke-width="2" points="333.5,-553.93 330,-543.93 326.5,-553.93 333.5,-553.93"/>
</g>
<!-- 9 -->
<g id="node10" class="node">
<title>9</title>
<path fill="none" stroke="#568ad8" stroke-width="2" d="M447,-612C447,-612 409,-612 409,-612 403,-612 397,-606 397,-600 397,-600 397,-588 397,-588 397,-582 403,-576 409,-576 409,-576 447,-576 447,-576 453,-576 459,-582 459,-588 459,-588 459,-600 459,-600 459,-606 453,-612 447,-612"/>
<text text-anchor="middle" x="428" y="-591.5" font-family="sans" font-size="10.00">bwa_mem</text>
</g>
<!-- 9&#45;&gt;7 -->
<g id="edge9" class="edge">
<title>9&#45;&gt;7</title>
<path fill="none" stroke="grey" stroke-width="2" d="M403.02,-575.15C391.61,-567.01 377.9,-557.22 365.46,-548.33"/>
<polygon fill="grey" stroke="grey" stroke-width="2" points="367.57,-545.54 357.4,-542.57 363.5,-551.23 367.57,-545.54"/>
</g>
<!-- 14 -->
<g id="node15" class="node">
<title>14</title>
<path fill="none" stroke="#56d8c9" stroke-width="2" d="M443,-540C443,-540 413,-540 413,-540 407,-540 401,-534 401,-528 401,-528 401,-516 401,-516 401,-510 407,-504 413,-504 413,-504 443,-504 443,-504 449,-504 455,-510 455,-516 455,-516 455,-528 455,-528 455,-534 449,-540 443,-540"/>
<text text-anchor="middle" x="428" y="-519.5" font-family="sans" font-size="10.00">flagstat</text>
</g>
<!-- 9&#45;&gt;14 -->
<g id="edge19" class="edge">
<title>9&#45;&gt;14</title>
<path fill="none" stroke="grey" stroke-width="2" d="M428,-575.34C428,-568.75 428,-561.08 428,-553.67"/>
<polygon fill="grey" stroke="grey" stroke-width="2" points="431.5,-553.93 428,-543.93 424.5,-553.93 431.5,-553.93"/>
</g>
<!-- 10 -->
<g id="node11" class="node">
<title>10</title>
<path fill="none" stroke="#d85656" stroke-width="2" d="M447.5,-684C447.5,-684 408.5,-684 408.5,-684 402.5,-684 396.5,-678 396.5,-672 396.5,-672 396.5,-660 396.5,-660 396.5,-654 402.5,-648 408.5,-648 408.5,-648 447.5,-648 447.5,-648 453.5,-648 459.5,-654 459.5,-660 459.5,-660 459.5,-672 459.5,-672 459.5,-678 453.5,-684 447.5,-684"/>
<text text-anchor="middle" x="428" y="-663.5" font-family="sans" font-size="10.00">bwa_index</text>
</g>
<!-- 10&#45;&gt;9 -->
<g id="edge11" class="edge">
<title>10&#45;&gt;9</title>
<path fill="none" stroke="grey" stroke-width="2" d="M428,-647.34C428,-640.75 428,-633.08 428,-625.67"/>
<polygon fill="grey" stroke="grey" stroke-width="2" points="431.5,-625.93 428,-615.93 424.5,-625.93 431.5,-625.93"/>
</g>
<!-- 11 -->
<g id="node12" class="node">
<title>11</title>
<path fill="none" stroke="#afd856" stroke-width="2" d="M530.5,-684C530.5,-684 489.5,-684 489.5,-684 483.5,-684 477.5,-678 477.5,-672 477.5,-672 477.5,-660 477.5,-660 477.5,-654 483.5,-648 489.5,-648 489.5,-648 530.5,-648 530.5,-648 536.5,-648 542.5,-654 542.5,-660 542.5,-660 542.5,-672 542.5,-672 542.5,-678 536.5,-684 530.5,-684"/>
<text text-anchor="middle" x="510" y="-663.5" font-family="sans" font-size="10.00">filter_reads</text>
</g>
<!-- 11&#45;&gt;9 -->
<g id="edge12" class="edge">
<title>11&#45;&gt;9</title>
<path fill="none" stroke="grey" stroke-width="2" d="M489.31,-647.34C480.06,-639.44 468.96,-629.96 458.76,-621.26"/>
<polygon fill="grey" stroke="grey" stroke-width="2" points="461.15,-618.7 451.27,-614.87 456.61,-624.02 461.15,-618.7"/>
</g>
<!-- 13 -->
<g id="node14" class="node">
<title>13</title>
<path fill="none" stroke="#d8bc56" stroke-width="2" d="M551.5,-468C551.5,-468 468.5,-468 468.5,-468 462.5,-468 456.5,-462 456.5,-456 456.5,-456 456.5,-444 456.5,-444 456.5,-438 462.5,-432 468.5,-432 468.5,-432 551.5,-432 551.5,-432 557.5,-432 563.5,-438 563.5,-444 563.5,-444 563.5,-456 563.5,-456 563.5,-462 557.5,-468 551.5,-468"/>
<text text-anchor="middle" x="510" y="-447.5" font-family="sans" font-size="10.00">fastqc_filtered_reads</text>
</g>
<!-- 11&#45;&gt;13 -->
<g id="edge18" class="edge">
<title>11&#45;&gt;13</title>
<path fill="none" stroke="grey" stroke-width="2" d="M510,-647.12C510,-610.62 510,-527.13 510,-481.74"/>
<polygon fill="grey" stroke="grey" stroke-width="2" points="513.5,-482 510,-472 506.5,-482 513.5,-482"/>
</g>
<!-- 12 -->
<g id="node13" class="node">
<title>12</title>
<path fill="none" stroke="#56b9d8" stroke-width="2" d="M407,-180C407,-180 377,-180 377,-180 371,-180 365,-174 365,-168 365,-168 365,-156 365,-156 365,-150 371,-144 377,-144 377,-144 407,-144 407,-144 413,-144 419,-150 419,-156 419,-156 419,-168 419,-168 419,-174 413,-180 407,-180"/>
<text text-anchor="middle" x="392" y="-159.5" font-family="sans" font-size="10.00">multiqc</text>
</g>
<!-- 12&#45;&gt;0 -->
<g id="edge2" class="edge">
<title>12&#45;&gt;0</title>
<path fill="none" stroke="grey" stroke-width="2" d="M373.76,-143.02C348.88,-118.48 304.08,-74.3 275.22,-45.84"/>
<polygon fill="grey" stroke="grey" stroke-width="2" points="277.82,-43.49 268.25,-38.96 272.91,-48.48 277.82,-43.49"/>
</g>
<!-- 13&#45;&gt;12 -->
<g id="edge17" class="edge">
<title>13&#45;&gt;12</title>
<path fill="none" stroke="grey" stroke-width="2" d="M507.72,-431.23C501.92,-390.71 483.99,-289.32 442,-216 436.7,-206.74 429.46,-197.82 422.13,-190.03"/>
<polygon fill="grey" stroke="grey" stroke-width="2" points="424.63,-187.58 415.09,-182.97 419.67,-192.52 424.63,-187.58"/>
</g>
<!-- 14&#45;&gt;12 -->
<g id="edge16" class="edge">
<title>14&#45;&gt;12</title>
<path fill="none" stroke="grey" stroke-width="2" d="M428,-503.07C428,-476.13 428,-423.62 428,-379 428,-379 428,-379 428,-305 428,-265.08 414.47,-220.73 404,-192.39"/>
<polygon fill="grey" stroke="grey" stroke-width="2" points="407.39,-191.48 400.54,-183.4 400.86,-193.99 407.39,-191.48"/>
</g>
<!-- 15 -->
<g id="node16" class="node">
<title>15</title>
<path fill="none" stroke="#97d856" stroke-width="2" d="M387.5,-324C387.5,-324 258.5,-324 258.5,-324 252.5,-324 246.5,-318 246.5,-312 246.5,-312 246.5,-300 246.5,-300 246.5,-294 252.5,-288 258.5,-288 258.5,-288 387.5,-288 387.5,-288 393.5,-288 399.5,-294 399.5,-300 399.5,-300 399.5,-312 399.5,-312 399.5,-318 393.5,-324 387.5,-324"/>
<text text-anchor="middle" x="323" y="-303.5" font-family="sans" font-size="10.00">cumulative_amplicon_coverage</text>
</g>
<!-- 15&#45;&gt;12 -->
<g id="edge15" class="edge">
<title>15&#45;&gt;12</title>
<path fill="none" stroke="grey" stroke-width="2" d="M331.74,-287.02C343.3,-263.22 363.83,-220.97 377.68,-192.48"/>
<polygon fill="grey" stroke="grey" stroke-width="2" points="380.79,-194.09 382.01,-183.56 374.49,-191.03 380.79,-194.09"/>
</g>
<!-- 16&#45;&gt;15 -->
<g id="edge20" class="edge">
<title>16&#45;&gt;15</title>
<path fill="none" stroke="grey" stroke-width="2" d="M303.56,-359.34C306.07,-352.59 309,-344.69 311.82,-337.11"/>
<polygon fill="grey" stroke="grey" stroke-width="2" points="315.1,-338.33 315.3,-327.74 308.53,-335.9 315.1,-338.33"/>
</g>
<!-- 19 -->
<g id="node20" class="node">
<title>19</title>
<path fill="none" stroke="#c6d856" stroke-width="2" d="M216,-324C216,-324 84,-324 84,-324 78,-324 72,-318 72,-312 72,-312 72,-300 72,-300 72,-294 78,-288 84,-288 84,-288 216,-288 216,-288 222,-288 228,-294 228,-300 228,-300 228,-312 228,-312 228,-318 222,-324 216,-324"/>
<text text-anchor="middle" x="150" y="-303.5" font-family="sans" font-size="10.00">summarise_primer_performance</text>
</g>
<!-- 16&#45;&gt;19 -->
<g id="edge25" class="edge">
<title>16&#45;&gt;19</title>
<path fill="none" stroke="grey" stroke-width="2" d="M259.53,-359.15C241.19,-350.43 218.89,-339.81 199.21,-330.43"/>
<polygon fill="grey" stroke="grey" stroke-width="2" points="200.93,-327.37 190.39,-326.24 197.92,-333.69 200.93,-327.37"/>
</g>
<!-- 17 -->
<g id="node18" class="node">
<title>17</title>
<path fill="none" stroke="#56d87b" stroke-width="2" d="M572,-252C572,-252 506,-252 506,-252 500,-252 494,-246 494,-240 494,-240 494,-228 494,-228 494,-222 500,-216 506,-216 506,-216 572,-216 572,-216 578,-216 584,-222 584,-228 584,-228 584,-240 584,-240 584,-246 578,-252 572,-252"/>
<text text-anchor="middle" x="539" y="-231.5" font-family="sans" font-size="10.00">placeholder_mqc</text>
</g>
<!-- 17&#45;&gt;12 -->
<g id="edge13" class="edge">
<title>17&#45;&gt;12</title>
<path fill="none" stroke="grey" stroke-width="2" d="M501.53,-215.15C479.99,-204.9 452.98,-192.04 431.17,-181.65"/>
<polygon fill="grey" stroke="grey" stroke-width="2" points="432.92,-178.61 422.39,-177.47 429.91,-184.93 432.92,-178.61"/>
</g>
<!-- 18&#45;&gt;12 -->
<g id="edge14" class="edge">
<title>18&#45;&gt;12</title>
<path fill="none" stroke="grey" stroke-width="2" d="M212.01,-215.06C256.04,-202.33 313.88,-185.6 351.96,-174.58"/>
<polygon fill="grey" stroke="grey" stroke-width="2" points="352.52,-178.06 361.16,-171.92 350.58,-171.34 352.52,-178.06"/>
</g>
<!-- 19&#45;&gt;18 -->
<g id="edge24" class="edge">
<title>19&#45;&gt;18</title>
<path fill="none" stroke="grey" stroke-width="2" d="M150,-287.34C150,-280.75 150,-273.08 150,-265.67"/>
<polygon fill="grey" stroke="grey" stroke-width="2" points="153.5,-265.93 150,-255.93 146.5,-265.93 153.5,-265.93"/>
</g>
</g>
</svg>
